HIERARCHY
ROOT Hips
{
  OFFSET 0 89.5177 0.535
  CHANNELS 6 Xposition Yposition Zposition Zrotation Xrotation Yrotation
  JOINT Spine
  {
    OFFSET 12.0259 -0.162855 1.69034e-005
    CHANNELS 3 Zrotation Xrotation Yrotation
    JOINT Spine1
    {
      OFFSET 15.3169 -0.0121922 0
      CHANNELS 3 Zrotation Xrotation Yrotation
      JOINT Spine2
      {
        OFFSET 15.3176 -0.0121908 0
        CHANNELS 3 Zrotation Xrotation Yrotation
        JOINT Neck
        {
          OFFSET 19.9142 1.56338 0
          CHANNELS 3 Zrotation Xrotation Yrotation
          JOINT Head
          {
            OFFSET 6.92651 0 0
            CHANNELS 3 Zrotation Xrotation Yrotation
            End Site
            {
              OFFSET 20.7666 0 0
            }
          }
          JOINT LeftShoulder
          {
            OFFSET -6.20654 0.708824 7.28219
            CHANNELS 3 Zrotation Xrotation Yrotation
            JOINT LeftArm
            {
              OFFSET 14.108 0 -1.52588e-005
              CHANNELS 3 Zrotation Xrotation Yrotation
              JOINT LeftForeArm
              {
                OFFSET 28.5802 0 0
                CHANNELS 3 Zrotation Xrotation Yrotation
                JOINT LeftHand
                {
                  OFFSET 27.092 0 0
                  CHANNELS 3 Zrotation Xrotation Yrotation
                  End Site
                  {
                    OFFSET 9.55928 -0.186424 0.145352
                  }
                }
              }
            }
          }
          JOINT RightShoulder
          {
            OFFSET -6.20654 0.708866 -7.28218
            CHANNELS 3 Zrotation Xrotation Yrotation
            JOINT RightArm
            {
              OFFSET 14.108 0 1.52588e-005
              CHANNELS 3 Zrotation Xrotation Yrotation
              JOINT RightForeArm
              {
                OFFSET 28.5802 0 0
                CHANNELS 3 Zrotation Xrotation Yrotation
                JOINT RightHand
                {
                  OFFSET 27.092 0 0
                  CHANNELS 3 Zrotation Xrotation Yrotation
                  End Site
                  {
                    OFFSET 9.55929 -0.186417 -0.145354
                  }
                }
              }
            }
          }
        }
      }
    }
  }
  JOINT LeftUpLeg
  {
    OFFSET 0.005 -0.535 8.837
    CHANNELS 3 Zrotation Xrotation Yrotation
    JOINT LeftLeg
    {
      OFFSET 39.9035 0 0
      CHANNELS 3 Zrotation Xrotation Yrotation
      JOINT LeftFoot
      {
        OFFSET 39.6689 0 0
        CHANNELS 3 Zrotation Xrotation Yrotation
        JOINT LeftToe
        {
          OFFSET 10.1624 13.6296 0
          CHANNELS 3 Zrotation Xrotation Yrotation
          End Site
          {
            OFFSET 8.38147 0 0
          }
        }
      }
    }
  }
  JOINT RightUpLeg
  {
    OFFSET 0.005 -0.535 -8.837
    CHANNELS 3 Zrotation Xrotation Yrotation
    JOINT RightLeg
    {
      OFFSET 39.9035 0 0
      CHANNELS 3 Zrotation Xrotation Yrotation
      JOINT RightFoot
      {
        OFFSET 39.6689 0 0
        CHANNELS 3 Zrotation Xrotation Yrotation
        JOINT RightToe
        {
          OFFSET 10.1624 13.6296 0
          CHANNELS 3 Zrotation Xrotation Yrotation
          End Site
          {
            OFFSET 8.38147 0 0
          }
        }
      }
    }
  }
}
MOTION
Frames:	7
Frame Time:	0.0333333
594.526 89.5271 194.141 94.8929 -27.8495 5.54982 1.64102 -0.180687 -0.219816 3.28135 -0.367117 -0.434221 3.28135 -0.367117 -0.43423 -8.30748e-012 -9.0191e-006 -5.27751e-005 -19.2029 2.13443 -3.97937 -179.266 -2.0153 -69.9818 -1.26843 -2.01931 60.5925 -22.358 0 7.95139e-016 -31.4416 -31.0647 -36.0943 -179.986 0.0435061 72.6178 8.12608 16.1471 -58.8827 -30.6847 1.59028e-014 3.18055e-015 -35.8736 44.4053 39.705 -12.685 9.76537 -178.577 -6.91535 3.18055e-015 -7.95139e-016 2.18771 10.9509 -11.5388 90 7.95139e-016 -3.18055e-015 5.28702 -10.2634 175.05 -6.64582 3.18056e-015 1.59028e-015 11.0677 -3.6211 3.0384 90 3.97569e-016 -0 
592.964 89.606 194.55 94.9321 -27.6427 5.70059 1.61091 0.0276725 -0.368953 3.22196 0.0454377 -0.738387 3.22196 0.0454375 -0.738396 -8.30311e-012 -9.0191e-006 -5.27751e-005 -19.9251 0.712136 -4.24078 -178.939 -2.86744 -69.6806 -2.17294 -2.02989 60.2555 -23.1972 -6.36111e-015 3.97569e-015 -31.7414 -31.6361 -36.4686 179.893 -0.345006 72.7315 6.60156 16.0175 -58.4981 -30.7088 6.36111e-015 3.18055e-015 -35.5987 44.6249 39.4128 -13.1386 10.448 -179.259 -9.68262 0 3.97569e-016 5.0228 11.5566 -11.1998 90 1.59028e-015 -3.18055e-015 3.23087 -10.0691 173.594 -11.754 1.27222e-014 1.59028e-015 12.3718 -3.44787 3.90272 90 0 -0 
591.445 89.7406 194.882 94.9624 -27.4956 5.49911 1.53383 0.182867 -0.422352 3.06898 0.354833 -0.849303 3.06898 0.354833 -0.849312 -8.30669e-012 -9.0191e-006 -5.27751e-005 -20.5987 0.546631 -3.90091 -178.745 -3.36979 -69.5653 -1.83021 -2.32373 60.3987 -23.6073 0 7.95139e-016 -32.3328 -31.4404 -36.7154 179.868 -0.425138 72.7094 5.13297 16.1858 -58.498 -30.3214 -3.18055e-015 -6.36111e-015 -34.8525 43.8453 38.2757 -12.5504 10.2206 -179.783 -10.3232 0 -7.95139e-016 6.33172 11.3995 -10.6917 90 -1.59028e-015 -3.18055e-015 1.67084 -10.0762 172.622 -15.7405 3.18056e-015 3.18056e-015 12.5203 -3.4681 4.6986 90 7.95139e-016 -6.36111e-015 
590.026 89.8857 195.152 95.0537 -27.2343 5.07288 1.44534 0.224401 -0.422025 2.89232 0.438554 -0.849434 2.89232 0.438554 -0.849443 -8.30867e-012 -9.0191e-006 -5.27751e-005 -21.4964 1.17246 -2.97913 -178.793 -3.29671 -69.8806 -0.906876 -1.98313 60.734 -24.3004 0 -1.19271e-015 -32.953 -31.8679 -37.537 179.913 -0.279636 72.786 3.71806 16.0019 -59.2647 -30.7056 0 -3.18055e-015 -33.8431 43.3446 37.0006 -12.121 9.9783 -179.979 -10.9148 0 3.97569e-016 7.57149 11.3884 -10.3655 90 1.59028e-015 3.18055e-015 -0.155241 -10.1142 171.975 -20.0376 9.54167e-015 3.18056e-015 12.2167 -3.42414 5.19041 90 -7.95139e-016 1.27222e-014 
588.756 90.0204 195.417 95.1836 -26.8242 4.54423 1.37675 0.219002 -0.38497 2.75498 0.429162 -0.774946 2.75498 0.429162 -0.774955 -8.30828e-012 -9.0191e-006 -5.27751e-005 -22.3223 1.32496 -2.45592 -178.869 -3.14752 -70.2249 -0.931692 -1.73641 60.8439 -24.1444 -3.18055e-015 5.96354e-015 -33.1782 -32.5023 -37.4149 179.929 -0.229206 72.7205 2.56283 15.1247 -60.0256 -32.2484 6.36111e-015 3.18055e-015 -33.6253 43.7944 36.7637 -11.6383 9.20276 179.909 -10.9999 0 3.97569e-016 8.19344 11.1342 -9.99272 90 0 6.36111e-015 -2.62193 -10.1406 171.385 -25.2013 3.18056e-015 1.59028e-015 11.33 -3.33038 5.81894 90 -1.59028e-015 -9.54166e-015 
587.543 90.1217 195.626 95.1956 -26.7476 4.05363 1.3807 0.227665 -0.36265 2.76285 0.446997 -0.730536 2.76285 0.446996 -0.730545 -8.30987e-012 -9.0191e-006 -5.27751e-005 -23.2355 1.0221 -2.41697 -178.96 -2.92161 -70.3903 -1.65525 -1.36916 60.4988 -24.2532 0 7.95139e-016 -32.1001 -32.8501 -37.0832 179.971 -0.0935994 72.582 1.09115 13.8758 -60.8624 -34.499 3.18055e-015 3.18055e-015 -34.0102 44.6962 37.2519 -11.062 8.87649 179.841 -11.2509 0 -0 9.06564 10.947 -9.60895 90 0 -3.18055e-015 -5.54037 -10.0147 170.658 -30.9558 6.36111e-015 1.59028e-015 9.73151 -3.23704 6.53217 90 -1.59028e-015 9.54166e-015 
586.447 90.1681 195.839 95.2757 -26.8561 3.71975 1.36965 0.194694 -0.355209 2.74049 0.381313 -0.714824 2.74049 0.381313 -0.714833 -8.30708e-012 -9.0191e-006 -5.27751e-005 -24.4302 1.48228 -1.88816 -178.889 -3.11377 -70.343 -2.84683 -1.30213 59.7843 -24.1277 3.18055e-015 -2.78299e-015 -31.0723 -32.7734 -36.1021 -179.967 0.104257 72.3058 -0.67424 12.3399 -61.6185 -37.0277 3.18055e-015 -0 -33.7024 45.4259 36.9107 -10.6715 8.74395 179.72 -11.6926 3.18055e-015 1.98785e-016 9.99671 10.8184 -9.17899 90 0 -3.18055e-015 -8.8224 -9.4535 170 -36.7985 -6.36111e-015 -3.18056e-015 7.49961 -3.12168 6.96163 90 4.77083e-015 -6.36111e-015 
